<svg id="Слой_1" data-name="Слой 1" xmlns="http://www.w3.org/2000/svg" viewBox="0 0 503.49 502.16"><defs><style>.cls-1{fill:#1d1e1e;}.cls-2{fill:#fff;}</style></defs><title>6</title><circle class="cls-1" cx="245.68" cy="243.68" r="223.1"/><g id="g1934"><path id="path1950" class="cls-2" d="M279,392.87c-21.13-12.12-34.23-21.25-51.38-35.82-31.49-26.76-58.91-61.45-76.36-96.61-14.12-28.47-22.06-50.65-28.39-79.36-3.51-15.92-3.65-18.39-1.63-28.75,2.07-10.63,2.66-11.89,9.61-20.42,15.14-18.58,34.36-30,56.62-33.7,13.37-2.21,17-1.75,19,2.44,1.9,3.87,9.34,78.56,8.25,82.87-1,4-4.1,5.16-20.11,7.52-12.31,1.82-17.06,4.71-15.7,9.57.37,1.3,22.46,31.51,49.1,67.12,31.12,41.61,49.53,65,51.5,65.53,4.35,1.1,8.34-1.74,9.66-6.88,2.06-8,5.49-14.45,8.05-15.08,2.81-.69,8.23,0,44.36,6,34.49,5.66,37.59,6.54,39.1,11,.67,2,.53,8.14-.31,13.65-3.65,23.88-18.48,43.44-42.63,56.23C317,409.1,305.45,408.07,279,392.87Z"/><path id="path1948" class="cls-2" d="M279,392.87c-42.94-24.62-76.49-54.79-104.5-93.94-24.53-34.3-42-74.17-51.63-117.85-3.51-15.92-3.65-18.39-1.63-28.75,2.07-10.63,2.66-11.89,9.61-20.42,15.27-18.73,35.43-30.54,57.89-33.9,12.68-1.9,15.74-1.44,17.76,2.64,1.9,3.87,9.34,78.56,8.25,82.87-1,4-4.1,5.16-20.11,7.52-12.31,1.82-17.06,4.71-15.7,9.57.37,1.3,22.46,31.51,49.1,67.12,31.12,41.61,49.53,65,51.5,65.53,4.53,1.15,8.36-1.8,9.83-7.57,1.91-7.53,6.37-14.59,9.29-14.74,3.39-.17,66.64,10.1,74.62,12.11,8.35,2.12,9.58,5.87,6.67,20.35-2.06,10.22-6.2,20.26-12.74,30.89-3.84,6.23-18.29,17.94-29.44,23.84C317,409.1,305.45,408.07,279,392.87Z"/><path id="path1946" class="cls-2" d="M279,392.87C258.17,381,245,371.75,227.57,357,173.3,311.1,134.39,244,121.33,173.84c-1.73-9.29-1.73-13.76,0-22.42,2.07-10.29,2.59-11.31,10.69-20.88,15.27-18.07,34.74-29.25,56.65-32.53,6.05-.91,11.91-1.42,13-1.14,4.31,1.09,6.38,7.41,7.9,24.12.88,9.54,2.56,26.79,3.75,38.33,2.24,21.82,2,26.61-1.52,28.22-1.15.53-8.22,2-15.72,3.17-13.87,2.24-18.62,5-17.23,9.9.37,1.3,22.46,31.51,49.1,67.12,50.38,67.36,52.9,70.15,58.17,64.37a19.51,19.51,0,0,0,3.28-6.91c1.8-7.08,6.32-14.09,9.17-14.24,3.39-.17,66.64,10.1,74.62,12.11,4.93,1.25,6.44,2.32,7.37,5.19,2.71,8.39-3.69,30.85-12.81,45-8.14,12.6-32.23,28.6-47.65,31.66C309,407.08,298.28,404,279,392.87Z"/><path id="path1944" class="cls-2" d="M293.15,400.85c-.7-.45-7.94-4.62-16.09-9.26-78.81-44.87-135.14-121.68-153.88-209.81-3.8-17.85-4-20.23-1.89-30.28,2.13-10.36,2.66-11.4,10.75-21,14.57-17.24,31.94-27.65,53.27-31.91,12.37-2.48,17.5-2.22,20.13,1,2.21,2.7,10.59,78.65,9.26,83.9-1,4.05-2.69,4.7-17.95,6.92-13.8,2-18.75,4.71-17.79,9.71.31,1.62,11.72,17.85,25.36,36.07s29.43,39.33,35.09,46.93c33.63,45.13,37,49.33,40.82,50.29,4.47,1.13,7.51-1.59,9.21-8.26,1.8-7.07,6.32-14.09,9.17-14.25,3.22-.18,67,10.23,75,12.22,8.66,2.18,9.58,6.13,5.35,23.16-5.93,23.85-18.2,39.42-40.47,51.38-14.36,7.7-23.59,9.38-35.07,6.34A77.14,77.14,0,0,1,293.15,400.85Z"/><path id="path1942" class="cls-2" d="M286.59,397c-28.9-15.06-63.81-42.15-86.75-67.29A320,320,0,0,1,123.4,182.54L119,162.72l3-12c2.76-10.89,3.72-12.82,10.19-20.4,6.79-8,19.64-18.6,27.13-22.47,7.66-4,25-9.21,33.38-10.11,9.35-1,13.28.28,14.32,4.67,1.46,6.14,8.24,78.85,7.6,81.41-.95,3.75-2.82,4.45-17.12,6.46-14.77,2.08-18.66,3.91-18.67,8.78,0,2.39,15.33,24.07,47.42,67,26.09,34.94,49,64.71,50.92,66.16,5.79,4.39,9.33,2,13.22-9q3.24-9.13,6.29-10.87c2.43-1.39,9.1-.75,32.78,3.12,16.35,2.67,34.39,6,40.1,7.43,10.13,2.5,10.4,2.67,11.31,7.13,1.46,7.13-4.74,29.12-11.1,39.41-9.46,15.3-31,30.73-48.75,34.9C311.81,406.55,300.17,404.05,286.59,397Z"/><path id="path1940" class="cls-2" d="M282.93,394.6C203.13,350.89,146.59,277,124.81,188c-7.66-31.32-5.92-42.13,9.63-59.59C145,116.59,161.05,105.79,174,101.87c12.11-3.67,26.92-5.55,29.78-3.77,2.54,1.57,4.32,10.37,6,29.56.58,6.63,2,21.59,3.22,33.24,1.23,12.11,1.53,22.38.7,24-1.09,2.07-5.4,3.39-16.87,5.2-12.05,1.89-15.76,3.07-17,5.44a10.86,10.86,0,0,0-1.37,5.12c.13,1.15,6.11,9.93,13.28,19.5s23.2,31,35.62,47.61c43.08,57.64,49.82,66.4,51.45,66.81a11.4,11.4,0,0,0,5.1-.9c2.73-1,4.19-3.33,6.92-10.85,2.78-7.68,4.13-9.75,6.89-10.63,5-1.57,78,10.7,81.25,13.66,4.41,4,.58,24.18-7.66,40.33-5.49,10.76-15.26,20.4-29,28.59C318.6,408.91,309,408.88,282.93,394.6Z"/><path id="path1938" class="cls-2" d="M291.44,398.85c-61-30.25-113.22-83.88-144.75-148.57-14-28.7-28.09-80.92-25.88-95.85,2.31-15.62,15.79-32,36.57-44.44,14.4-8.62,32.7-13.51,42.27-11.3,7.19,1.67,7.17,1.61,10.58,35.74,4.05,40.48,4.57,48.83,3.21,51-.77,1.25-7.53,3-16.2,4.28-12.05,1.74-15.3,2.78-17.14,5.51-1.5,2.22-2,4.29-1.43,6.08.89,2.87,87.82,120.34,95.16,128.6,7.73,8.7,14.57,5.07,18.34-9.75,2.34-9.18,3.82-9.47,28.07-5.5,12,2,29.7,4.81,39.35,6.32,22.28,3.49,22.72,4,19.42,21.42-4.68,24.7-14.66,38.55-37.75,52.33-11.91,7.12-16.68,9.1-23.69,9.86C307.54,405.68,303.36,404.76,291.44,398.85Z"/><path id="path1936" class="cls-2" d="M288,396.6c-38.85-20-74.44-49.67-104.5-87-18.15-22.52-40.19-63.8-50.38-94.35-5.22-15.66-11.74-42.59-12.28-50.75-1.13-17.13,6.61-31.19,26.32-47.79,16.48-13.89,54.79-24.21,58.36-15.73,1.09,2.6,2.32,12.67,6.43,52.8,3.43,33.54,3.27,34.1-10,35.22-14.73,1.26-21.13,3.3-22.61,7.2-2,5.16-1.29,6.65,9.22,20.73C223,263.1,262.9,316.42,268.92,324.41c3.91,5.2,8.43,9.78,10,10.19,6.28,1.59,9.7-1.93,12.79-13.18,2.51-9.14,6-10.29,22.76-7.54,67.79,11.14,62.73,10.1,64.71,13.4,2.94,4.89-.8,23.08-7.53,36.64-6.59,13.28-18.42,24.77-34.05,33.06C318.31,407.24,308.47,407.16,288,396.6Z"/></g></svg>